<svg width="120" height="120" viewBox="0 0 120 120" fill="none" xmlns="http://www.w3.org/2000/svg">
  <rect width="120" height="120" rx="24" fill="#22c1c3"/>
  <path d="M60 35C52.268 35 46 41.268 46 49V61C46 68.732 52.268 75 60 75C67.732 75 74 68.732 74 61V49C74 41.268 67.732 35 60 35Z" fill="white"/>
  <path d="M82 61C82 62.105 81.105 63 80 63C78.895 63 78 62.105 78 61C78 50.507 69.493 42 59 42C48.507 42 40 50.507 40 61C40 62.105 39.105 63 38 63C36.895 63 36 62.105 36 61C36 48.297 46.297 38 59 38C71.703 38 82 48.297 82 61Z" fill="white"/>
  <path d="M60 75C60 76.105 59.105 77 58 77H62C60.895 77 60 76.105 60 75V85C60 86.105 59.105 87 58 87H62C60.895 87 60 86.105 60 85V75Z" fill="white"/>
  <rect x="48" y="85" width="24" height="4" rx="2" fill="white"/>
</svg>

